<svg viewBox="0 0 24 24" xmlns="http://www.w3.org/2000/svg">
<style>path{stroke-linecap:round;stroke:none;fill:#04080b;stroke:#04080b}.c10-logo_background{fill:#f8fcff}.c10-logo_one{stroke:none}.c10-logo_moon-left{stroke:none;fill:#143e79}.c10-logo_moon-right{stroke:none;fill:#1f314a}.c10-logo_circle{display:none}@media(prefers-color-scheme:dark){path{fill:#f8fcff;stroke:#f8fcff}.c10-logo_background{fill:#04080b}.c10-logo_moon-left{fill:#1b55a6}.c10-logo_moon-right{fill:#395a88}}</style>
<circle class="c10-logo_background" cx="12" cy="12" r="12"/>
<path class="c10-logo_one" d="M6.879 6.309v11.704H4.59V9.087l-2.241.851V8.043l4.288-1.734h.242Z"/>
<path class="c10-logo_moon-left" d="M16.875 17.468a5.57 5.57 0 0 0 1.547-.218 6.09 6.09 0 0 1-3.009.789 6.093 6.093 0 0 1-4.473-1.943 5.988 5.988 0 0 1-1.613-4.095c0-1.582.611-3.02 1.613-4.096a6.09 6.09 0 0 1 4.473-1.944 6.09 6.09 0 0 1 3.014.792 5.56 5.56 0 0 0-1.552-.22 5.512 5.512 0 0 0-4.874 2.916 5.397 5.397 0 0 0-.636 2.552c0 .921.229 1.789.636 2.551a5.512 5.512 0 0 0 4.874 2.916"/>
<path class="c10-logo_moon-right" d="M21.651 12a4.67 4.67 0 0 1-.529 2.165 4.756 4.756 0 0 1-4.222 2.55 4.758 4.758 0 0 1-3.023-1.076 4.028 4.028 0 0 0 1.561.314c2.2 0 3.984-1.77 3.984-3.953s-1.784-3.953-3.984-3.953c-.554 0-1.082.113-1.561.314A4.758 4.758 0 0 1 16.9 7.285a4.756 4.756 0 0 1 4.222 2.55c.338.648.529 1.384.529 2.165"/>
</svg>
